<?xml version="1.0"?>
<svg xmlns="http://www.w3.org/2000/svg" id="Outline" viewBox="0 0 512 512" width="512px" height="512px"><g><path d="M488,64H88a8,8,0,0,0-8,8V328H24a8,8,0,0,0-8,8V440a8,8,0,0,0,8,8H88a8,8,0,0,0,8-8v-8H263.018a43.353,43.353,0,0,0,20.7-5.278L362.04,384H488a8,8,0,0,0,8-8V72A8,8,0,0,0,488,64ZM256,80h64v80H256ZM80,432H32V344H80Zm196.055-19.325A27.3,27.3,0,0,1,263.018,416H96V368h20.773A11.239,11.239,0,0,0,128,356.773v-1.546A27.258,27.258,0,0,1,155.227,328h19.666a11.287,11.287,0,0,0,6.893-2.365L231.713,286.8a19.227,19.227,0,0,1,25.4,28.772l-49.261,49.26A11.226,11.226,0,0,0,215.79,384H328.627ZM480,368H227.314l41.111-41.112a35.226,35.226,0,0,0-46.535-52.715L214.4,280H136a8,8,0,0,0,0,16h57.827l-20.572,16H155.227a43.285,43.285,0,0,0-43.108,40H96V80H240v88a8,8,0,0,0,8,8h80a8,8,0,0,0,8-8V80H480Z" data-original="#000000" class="active-path" data-old_color="#000000" fill="#FFFFFF"/><path d="M360,352h96a8,8,0,0,0,8-8V296a8,8,0,0,0-8-8H360a8,8,0,0,0-8,8v48A8,8,0,0,0,360,352Zm40-16V304h16v32Zm48,0H432V304h16Zm-80-32h16v32H368Z" data-original="#000000" class="active-path" data-old_color="#000000" fill="#FFFFFF"/><path d="M168,248H136a8,8,0,0,0,0,16h32a8,8,0,0,0,0-16Z" data-original="#000000" class="active-path" data-old_color="#000000" fill="#FFFFFF"/></g> </svg>
