<?xml version="1.0"?>
<svg xmlns="http://www.w3.org/2000/svg" id="_x31_px" enable-background="new 0 0 24 24" height="512px" viewBox="0 0 24 24" width="512px"><g><path d="m5.5 13c-.13 0-.258-.051-.354-.146l-5-5c-.195-.195-.195-.512 0-.707l5-5c.144-.144.358-.187.545-.109.187.077.309.26.309.462v2.5h10c.551 0 1 .449 1 1v3c0 .551-.449 1-1 1h-10v2.5c0 .202-.122.385-.309.462-.062.026-.127.038-.191.038zm-4.293-5.5 3.793 3.793v-1.793c0-.276.224-.5.5-.5h10.5v-3h-10.5c-.276 0-.5-.224-.5-.5v-1.793z" data-original="#000000" class="active-path" data-old_color="#000000" fill="#FFFFFF"/><path d="m18.5 22c-.064 0-.129-.012-.191-.038-.187-.077-.309-.26-.309-.462v-2.5h-10c-.551 0-1-.449-1-1v-3c0-.551.449-1 1-1h10v-2.5c0-.202.122-.385.309-.462.188-.077.402-.035.545.108l5 5c.195.195.195.512 0 .707l-5 5c-.096.096-.224.147-.354.147zm-10.5-7v3h10.5c.276 0 .5.224.5.5v1.793l3.793-3.793-3.793-3.793v1.793c0 .276-.224.5-.5.5z" data-original="#000000" class="active-path" data-old_color="#000000" fill="#FFFFFF"/></g> </svg>
